<svg xmlns="http://www.w3.org/2000/svg" width="147" height="34" fill="none"><script xmlns=""/><path fill-rule="evenodd" clip-rule="evenodd" d="M32.92 9.755c.705.658.917 1.69.529 2.571l-8.713 19.807a2.265 2.265 0 0 1-3.018 1.147L2.062 24.25a2.267 2.267 0 0 1-1.31-2.273L1.903 9.829a2.266 2.266 0 0 1 1.451-1.905l18.3-6.952a2.264 2.264 0 0 1 2.348.461l8.919 8.322zM20.48 27.741a1.132 1.132 0 0 0 1.508-.573l6.371-14.483a1.134 1.134 0 0 0-.264-1.285l-5.58-5.209a1.132 1.132 0 0 0-1.175-.23L6.898 11.447a1.133 1.133 0 0 0-.726.953l-.72 7.602c-.045.48.218.936.655 1.137l14.372 6.602zm2.142-13.224a2.268 2.268 0 0 0-.529-2.571l-.036-.034a2.265 2.265 0 0 0-2.35-.462l-1.625.618a1.46 1.46 0 0 0-.92 1.117 1.459 1.459 0 0 1-2.348.892 1.458 1.458 0 0 0-1.43-.225l-1.624.618a2.267 2.267 0 0 0-1.451 1.905l-.005.05c-.091.96.434 1.872 1.31 2.274l5.535 2.543a2.265 2.265 0 0 0 3.019-1.147l2.454-5.578zM41.518 12.551c0-.777.765-1.324 1.5-1.072l2.288.787.004-.011v.011c1.009-1.071 2.538-1.683 4.281-1.683 1.988 0 3.486.734 4.496 2.173 1.192-1.347 2.966-2.173 5.046-2.173 3.547 0 5.718 2.417 5.718 6.09v9.394h-4.128v-8.813c0-1.806-1.07-2.938-2.691-2.938-1.621 0-2.783 1.163-2.783 2.846v8.905H51.12v-8.813c0-1.806-1.07-2.938-2.691-2.938-1.682 0-2.783 1.132-2.783 2.938v8.813h-4.128V12.55zm33.142 8.314 3.945-9.945h4.343L75.7 27.383c-1.377 3.151-3.211 4.559-6.025 4.559-.856 0-1.743-.122-2.66-.367v-3.458c.948.092 1.529.122 1.773.122 1.468 0 2.674-.917 3.15-2.05.293-.665.304-1.42.029-2.093l-5.38-13.176h4.373l3.7 9.945zM110.278 26.066h-4.128V3.116h4.128v22.95zm2.917-6.67c0 4.222 2.967 7.037 7.004 7.037 3.945 0 6.942-2.815 6.942-7.038V10.92h-4.129v8.813c0 1.744-1.223 2.907-2.813 2.907-1.682 0-2.875-1.163-2.875-2.907v-8.813h-4.129v8.476zm-31.238 4.192c0 1.621 1.254 2.845 2.875 2.845 1.62 0 2.813-1.224 2.813-2.845 0-1.592-1.223-2.846-2.813-2.846-1.621 0-2.875 1.254-2.875 2.846zm49.612 2.72a1.133 1.133 0 0 1-1.513-1.069V3.174h4.129v8.786a7.864 7.864 0 0 1 12.132 6.606 7.864 7.864 0 0 1-11.927 6.736l-2.821 1.005zm11.043-7.741a4.158 4.158 0 1 1-8.314 0 4.158 4.158 0 1 1 8.314 0zM97.431 10.64a7.85 7.85 0 0 1 6.325 3.194l-2.677 2.678a4.156 4.156 0 0 0-7.805 1.995 4.158 4.158 0 0 0 7.366 2.643l2.627 2.628a7.841 7.841 0 0 1-5.836 2.596 7.864 7.864 0 0 1-7.862-7.867 7.864 7.864 0 0 1 7.862-7.867z" fill="#fff"/></svg>